<svg width="34" height="28" viewBox="0 0 34 28" fill="none" xmlns="http://www.w3.org/2000/svg">
<path fill-rule="evenodd" clip-rule="evenodd" d="M28.6666 0.666504C29.9419 0.666433 31.1691 1.15371 32.097 2.02864C33.0249 2.90357 33.5834 4.10002 33.6583 5.37317L33.6666 5.6665V22.3332C33.6667 23.6085 33.1794 24.8357 32.3044 25.7636C31.4295 26.6915 30.2331 27.25 28.9599 27.3248L28.6666 27.3332H5.33325C4.0579 27.3332 2.83073 26.846 1.90282 25.971C0.974907 25.0961 0.416406 23.8997 0.341585 22.6265L0.333252 22.3332V5.6665C0.333181 4.39115 0.82046 3.16398 1.69539 2.23607C2.57032 1.30816 3.76676 0.749658 5.03992 0.674837L5.33325 0.666504H28.6666ZM30.3333 10.6665H3.66659V22.3332C3.66664 22.7414 3.81651 23.1354 4.08778 23.4405C4.35904 23.7455 4.73283 23.9404 5.13825 23.9882L5.33325 23.9998H28.6666C29.0748 23.9998 29.4688 23.8499 29.7739 23.5786C30.0789 23.3074 30.2738 22.9336 30.3216 22.5282L30.3333 22.3332V10.6665ZM21.5116 13.1065L24.5583 16.1548C24.8707 16.4674 25.0462 16.8912 25.0462 17.3332C25.0462 17.7751 24.8707 18.199 24.5583 18.5115L21.5116 21.5582C21.3578 21.7174 21.1739 21.8443 20.9706 21.9317C20.7673 22.019 20.5486 22.065 20.3273 22.0669C20.106 22.0688 19.8865 22.0267 19.6817 21.9429C19.4768 21.8591 19.2907 21.7353 19.1343 21.5788C18.9778 21.4223 18.854 21.2363 18.7702 21.0314C18.6864 20.8266 18.6442 20.6071 18.6462 20.3858C18.6481 20.1645 18.6941 19.9458 18.7814 19.7425C18.8688 19.5392 18.9957 19.3552 19.1549 19.2015L19.3549 18.9998H11.9999C11.5579 18.9998 11.134 18.8242 10.8214 18.5117C10.5088 18.1991 10.3333 17.7752 10.3333 17.3332C10.3333 16.8911 10.5088 16.4672 10.8214 16.1547C11.134 15.8421 11.5579 15.6665 11.9999 15.6665H19.3566L19.1549 15.4648C18.8422 15.1523 18.6664 14.7284 18.6662 14.2863C18.6661 13.8441 18.8416 13.4201 19.1541 13.1073C19.4666 12.7946 19.8905 12.6188 20.3327 12.6187C20.7748 12.6185 21.1989 12.794 21.5116 13.1065ZM28.6666 3.99984H5.33325C4.89122 3.99984 4.4673 4.17543 4.15474 4.48799C3.84218 4.80055 3.66659 5.22448 3.66659 5.6665V7.33317H30.3333V5.6665C30.3333 5.22448 30.1577 4.80055 29.8451 4.48799C29.5325 4.17543 29.1086 3.99984 28.6666 3.99984Z" fill="#26292F"/>
</svg>
