<svg width="22" height="21" viewBox="0 0 22 21" fill="none" xmlns="http://www.w3.org/2000/svg">
<path d="M21.5244 16.4467L13.3259 2.20886C13.0885 1.80275 12.7488 1.46588 12.3408 1.23179C11.9327 0.997688 11.4705 0.874512 11 0.874512C10.5296 0.874512 10.0673 0.997688 9.65926 1.23179C9.2512 1.46588 8.91154 1.80275 8.67407 2.20886L0.475636 16.4467C0.245217 16.8408 0.123779 17.2891 0.123779 17.7456C0.123779 18.2021 0.245217 18.6504 0.475636 19.0445C0.710469 19.4526 1.04966 19.7909 1.4584 20.0247C1.86714 20.2585 2.33072 20.3793 2.80157 20.3748H19.1985C19.669 20.379 20.1322 20.258 20.5406 20.0242C20.9489 19.7905 21.2878 19.4523 21.5225 19.0445C21.7532 18.6506 21.875 18.2023 21.8753 17.7458C21.8756 17.2893 21.7545 16.8409 21.5244 16.4467ZM19.5744 17.9185C19.5363 17.9835 19.4813 18.037 19.4153 18.0733C19.3493 18.1096 19.2747 18.1274 19.1994 18.1248H2.80157C2.72628 18.1274 2.65169 18.1096 2.58568 18.0733C2.51968 18.037 2.4647 17.9835 2.42657 17.9185C2.39423 17.866 2.37711 17.8054 2.37711 17.7437C2.37711 17.682 2.39423 17.6214 2.42657 17.5689L10.625 3.33105C10.6656 3.26856 10.7212 3.21721 10.7867 3.18165C10.8522 3.1461 10.9255 3.12748 11 3.12748C11.0745 3.12748 11.1479 3.1461 11.2134 3.18165C11.2788 3.21721 11.3344 3.26856 11.375 3.33105L19.5725 17.5689C19.6051 17.6213 19.6226 17.6817 19.6229 17.7434C19.6232 17.8052 19.6064 17.8658 19.5744 17.9185ZM9.87501 11.7498V8.7498C9.87501 8.45143 9.99354 8.16528 10.2045 7.9543C10.4155 7.74332 10.7016 7.6248 11 7.6248C11.2984 7.6248 11.5845 7.74332 11.7955 7.9543C12.0065 8.16528 12.125 8.45143 12.125 8.7498V11.7498C12.125 12.0482 12.0065 12.3343 11.7955 12.5453C11.5845 12.7563 11.2984 12.8748 11 12.8748C10.7016 12.8748 10.4155 12.7563 10.2045 12.5453C9.99354 12.3343 9.87501 12.0482 9.87501 11.7498ZM12.5 15.4998C12.5 15.7965 12.412 16.0865 12.2472 16.3332C12.0824 16.5798 11.8481 16.7721 11.574 16.8856C11.2999 16.9991 10.9983 17.0289 10.7074 16.971C10.4164 16.9131 10.1491 16.7702 9.93935 16.5605C9.72957 16.3507 9.58671 16.0834 9.52883 15.7924C9.47096 15.5015 9.50066 15.1999 9.61419 14.9258C9.72772 14.6517 9.91998 14.4174 10.1667 14.2526C10.4133 14.0878 10.7033 13.9998 11 13.9998C11.3978 13.9998 11.7794 14.1578 12.0607 14.4391C12.342 14.7204 12.5 15.102 12.5 15.4998Z" fill="#AC2E2E"/>
</svg>
